#!OML:ASF F:\VICON\USERDATA\INSTALL\rory3\rory3.ASF
:FULLY-SPECIFIED
:DEGREES
3361
root 14.6323 17.9541 -8.32804 0.626903 180.4 -361.927
lowerback 12.3255 0.976503 -0.285761
upperback 1.67006 1.10669 0.554336
thorax -5.17432 0.476979 0.565694
lowerneck -11.4162 -0.552528 -12.9073
upperneck 40.4428 -5.94782 5.91051
head 17.2126 -5.51178 3.40737
rclavicle 3.47873e-015 -4.77083e-015
rhumerus -32.4712 -6.42523 -83.1144
rradius 38.7329
rwrist 2.8511
rhand -14.8746 7.82067
rfingers 7.12502
rthumb 11.2857 -21.8557
lclavicle 3.47873e-015 -4.77083e-015
lhumerus -34.2765 7.26162 85.6449
lradius 34.7323
lwrist -3.30629
lhand -19.8664 27.1408
lfingers 7.12502
lthumb 6.46881 57.022
rfemur -13.7927 0.56531 22.4603
rtibia 33.8435
rfoot -15.5103 -6.51114
rtoes 3.7957
lfemur -14.546 -9.82467 -20.5652
ltibia 28.027
lfoot -14.1957 -4.5512
ltoes -17.3983
3362
root 14.6467 17.9613 -8.29809 0.630785 180.693 -361.968
lowerback 12.4124 0.961177 -0.296447
upperback 1.66689 1.08405 0.553633
thorax -5.22572 0.465742 0.573676
lowerneck -11.3169 -0.574638 -13.0232
upperneck 40.4264 -6.01481 6.02302
head 17.1974 -5.54383 3.46999
rclavicle -6.06293e-015 -1.63003e-014
rhumerus -32.7302 -6.3937 -82.9551
rradius 38.8604
rwrist 2.67341
rhand -15.1027 8.20806
rfingers 7.12502
rthumb 11.0657 -21.4802
lclavicle -6.06293e-015 -1.63003e-014
lhumerus -34.3676 6.68214 85.945
lradius 34.9327
lwrist -3.25021
lhand -19.5239 27.4717
lfingers 7.12502
lthumb 6.79944 57.3425
rfemur -13.8375 0.455942 22.4668
rtibia 33.7353
rfoot -15.2889 -6.68464
rtoes 3.97892
lfemur -14.5731 -9.52612 -20.6635
ltibia 28.7377
lfoot -14.5814 -3.92789
ltoes -17.8215
3363
root 14.6614 17.9708 -8.26686 0.607202 181.016 -361.916
lowerback 12.4252 0.932954 -0.214282
upperback 1.73916 1.052 0.567057
thorax -5.15501 0.445719 0.547229
lowerneck -11.2931 -0.622507 -12.9912
upperneck 40.397 -6.07583 6.00755
head 17.1826 -5.55705 3.44817
rclavicle -9.44227e-015 3.97569e-015
rhumerus -32.7265 -6.50566 -82.8504
rradius 38.7545
rwrist 2.43438
rhand -15.4179 8.61314
rfingers 7.12502
rthumb 10.7617 -21.0912
lclavicle -9.44227e-015 3.97569e-015
lhumerus -34.3824 6.05539 86.286
lradius 34.996
lwrist -2.7241
lhand -19.5014 27.2829
lfingers 7.12502
lthumb 6.82116 57.153
rfemur -13.8514 0.327704 22.5743
rtibia 33.6441
rfoot -15.1498 -6.85405
rtoes 4.27929
lfemur -14.5929 -9.18111 -20.6614
ltibia 29.5899
lfoot -15.113 -3.35196
ltoes -16.365
3364
root 14.6731 17.9789 -8.23187 0.575999 181.356 -361.945
lowerback 12.4887 0.892299 -0.1854
upperback 1.81109 0.994507 0.561799
thorax -5.1132 0.413768 0.53493
lowerneck -11.4138 -0.666572 -12.9849
upperneck 40.5319 -6.15162 5.9764
head 17.3008 -5.59632 3.4182
rclavicle 4.67144e-015 7.95139e-016
rhumerus -32.6244 -6.70478 -82.6756
rradius 38.5336
rwrist 2.39238
rhand -15.3172 8.59276
rfingers 7.12502
rthumb 10.8588 -21.1065
lclavicle 4.67144e-015 7.95139e-016
lhumerus -34.352 5.66631 86.5252
lradius 35.0492
lwrist -2.77995
lhand -19.6041 27.0986
lfingers 7.12502
lthumb 6.72198 56.9719
rfemur -13.8931 0.148032 22.5868
rtibia 33.5729
rfoot -14.9879 -7.00203
rtoes 4.31354
lfemur -14.5908 -8.79754 -20.762
ltibia 30.5534
lfoot -15.4231 -2.67012
ltoes -14.478
3365
root 14.6807 17.9823 -8.19813 0.507579 181.625 -362.062
lowerback 12.6374 0.913324 -0.202497
upperback 1.82257 1.01489 0.518431
thorax -5.18313 0.422556 0.494211
lowerneck -11.3782 -0.701142 -12.9604
upperneck 40.6337 -6.26286 5.97179
head 17.3653 -5.64959 3.39184
rclavicle 1.19271e-014 7.55382e-015
rhumerus -32.8527 -6.95471 -82.4318
rradius 38.6227
rwrist 2.43912
rhand -15.2195 8.31221
rfingers 7.12502
rthumb 10.953 -21.3821
lclavicle 1.19271e-014 7.55382e-015
lhumerus -34.4192 5.35321 86.7048
lradius 35.2493
lwrist -3.2779
lhand -19.2803 27.4583
lfingers 7.12502
lthumb 7.03462 57.3214
rfemur -13.9219 -0.151529 22.4778
rtibia 33.5221
rfoot -14.7581 -6.99023
rtoes 4.06427
lfemur -14.4607 -8.30746 -20.9977
ltibia 31.6188
lfoot -15.2446 -2.07888
ltoes -14.9884
3366
root 14.6878 17.9851 -8.16742 0.474671 181.87 -362.224
lowerback 12.6431 0.92988 -0.281175
upperback 1.82845 1.02329 0.459224
thorax -5.18059 0.427897 0.475092
lowerneck -11.173 -0.687838 -12.8471
upperneck 40.6139 -6.30226 5.9312
head 17.2989 -5.65908 3.34838
rclavicle -1.2921e-015 1.59028e-015
rhumerus -33.1707 -6.85606 -82.3166
rradius 38.8213
rwrist 2.01079
rhand -15.3984 8.12287
rfingers 7.12502
rthumb 10.7805 -21.5805
lclavicle -1.2921e-015 1.59028e-015
lhumerus -34.4887 5.02734 86.9025
lradius 35.3223
lwrist -3.47423
lhand -19.3406 27.2805
lfingers 7.12502
lthumb 6.97638 57.1455
rfemur -13.9659 -0.42654 22.3039
rtibia 33.4845
rfoot -14.5653 -6.92226
rtoes 3.96185
lfemur -14.3135 -7.78008 -21.2853
ltibia 32.7567
lfoot -15.1322 -1.49873
ltoes -16.4721
3367
root 14.697 17.9938 -8.13659 0.493134 182.148 -362.248
lowerback 12.5153 0.902451 -0.269944
upperback 1.91947 0.983619 0.466817
thorax -5.01368 0.405828 0.485532
lowerneck -11.1522 -0.684558 -12.8168
upperneck 40.5796 -6.26387 5.89871
head 17.2658 -5.63297 3.33731
rclavicle -4.67144e-015 -3.97569e-016
rhumerus -33.1829 -6.77615 -82.2028
rradius 38.8065
rwrist 1.67733
rhand -15.3074 7.79498
rfingers 7.12502
rthumb 10.8683 -21.9038
lclavicle -4.67144e-015 -3.97569e-016
lhumerus -34.3274 4.81332 87.101
lradius 35.1934
lwrist -3.62448
lhand -19.5578 26.9531
lfingers 7.12502
lthumb 6.7667 56.825
rfemur -14.0479 -0.5676 22.2935
rtibia 33.4013
rfoot -14.3903 -6.96869
rtoes 4.27514
lfemur -14.2418 -7.32102 -21.3897
ltibia 33.9775
lfoot -15.2507 -0.928157
ltoes -17.1867
3368
root 14.7087 18.0046 -8.0986 0.50801 182.41 -362.227
lowerback 12.5385 0.911358 -0.248427
upperback 1.99675 0.993856 0.519945
thorax -4.94597 0.407657 0.527732
lowerneck -11.256 -0.750014 -13.0313
upperneck 40.5775 -6.32598 6.06057
head 17.3194 -5.65823 3.44106
rclavicle -1.2424e-014 7.15625e-015
rhumerus -33.1434 -7.03112 -81.8766
rradius 38.7102
rwrist 1.85974
rhand -15.144 7.84651
rfingers 7.12502
rthumb 11.0259 -21.8439
lclavicle -1.2424e-014 7.15625e-015
lhumerus -34.2095 4.69084 87.2795
lradius 35.2229
lwrist -4.2746
lhand -19.7003 26.0701
lfingers 7.12502
lthumb 6.62918 55.9463
rfemur -14.1446 -0.571177 22.3559
rtibia 33.2586
rfoot -14.0391 -7.14862
rtoes 4.95554
lfemur -14.2074 -6.90207 -21.4015
ltibia 35.2678
lfoot -15.2444 -0.626974
ltoes -17.5039
3369
root 14.7195 18.0186 -8.05672 0.464828 182.668 -362.158
lowerback 12.7278 0.899748 -0.166482
upperback 1.9965 0.989961 0.598923
thorax -5.05066 0.403227 0.562925
lowerneck -11.3318 -0.778126 -13.2456
upperneck 40.6445 -6.35363 6.17725
head 17.3978 -5.68888 3.52898
rclavicle 1.31198e-014 3.97569e-016
rhumerus -33.2115 -7.2149 -81.543
rradius 38.6259
rwrist 1.96704
rhand -15.1338 7.99149
rfingers 7.12502
rthumb 11.0357 -21.6984
lclavicle 1.31198e-014 3.97569e-016
lhumerus -34.2829 4.72286 87.412
lradius 35.3809
lwrist -5.0233
lhand -19.8993 24.8153
lfingers 7.12502
lthumb 6.43703 54.6975
rfemur -14.1533 -0.624615 22.48
rtibia 33.0587
rfoot -13.4867 -7.31557
rtoes 5.47578
lfemur -14.1344 -6.55856 -21.3374
ltibia 36.6106
lfoot -15.0702 -0.588514
ltoes -17.0035
3370
root 14.7286 18.0313 -8.01925 0.391849 182.95 -362.11
lowerback 12.8168 0.839419 -0.125255
upperback 2.01392 0.915576 0.664684
thorax -5.08101 0.364789 0.62047
lowerneck -11.3292 -0.709909 -13.1006
upperneck 40.735 -6.21259 5.94625
head 17.4101 -5.64545 3.4211
rclavicle 4.87022e-015 -7.15625e-015
rhumerus -33.2561 -7.25594 -81.3522
rradius 38.4783
rwrist 1.88613
rhand -15.0435 7.87507
rfingers 7.12502
rthumb 11.1228 -21.8102
lclavicle 4.87022e-015 -7.15625e-015
lhumerus -34.284 4.71879 87.496
lradius 35.4655
lwrist -5.31035
lhand -19.9078 24.6499
lfingers 7.12502
lthumb 6.42884 54.5323
rfemur -14.1008 -0.789457 22.568
rtibia 32.8525
rfoot -13.0578 -7.42446
rtoes 5.46509
lfemur -13.9564 -6.2087 -21.2905
ltibia 37.9512
lfoot -14.9618 -0.726797
ltoes -16.087
3371
root 14.7366 18.0404 -7.98627 0.285424 183.197 -362.155
lowerback 12.8054 0.817145 -0.157055
upperback 2.11561 0.872398 0.660824
thorax -4.9677 0.340169 0.642475
lowerneck -11.3939 -0.672072 -12.7336
upperneck 40.772 -6.0595 5.55941
head 17.3927 -5.56619 3.20429
rclavicle -1.72943e-014 -1.27222e-014
rhumerus -33.2787 -7.37239 -81.2337
rradius 38.3867
rwrist 1.82625
rhand -14.9614 7.71903
rfingers 7.12502
rthumb 11.2019 -21.9619
lclavicle -1.72943e-014 -1.27222e-014
lhumerus -34.0488 4.58611 87.5373
lradius 35.4098
lwrist -5.33392
lhand -20.1106 24.5897
lfingers 7.12502
lthumb 6.23309 54.478
rfemur -13.9879 -1.01638 22.5284
rtibia 32.6254
rfoot -12.811 -7.39624
rtoes 5.42516
lfemur -13.6554 -5.86362 -21.3444
ltibia 39.2646
lfoot -14.8714 -0.993955
ltoes -15.4299
3372
root 14.7413 18.0506 -7.95328 0.248527 183.35 -362.272
lowerback 12.753 0.853328 -0.215411
upperback 2.14335 0.909258 0.612152
thorax -4.91026 0.3587 0.61883
lowerneck -11.3034 -0.658985 -12.4341
upperneck 40.7373 -5.98297 5.25718
head 17.313 -5.51962 3.02741
rclavicle -1.28216e-014 -4.77083e-015
rhumerus -33.4749 -7.54657 -81.0451
rradius 38.3496
rwrist 1.95489
rhand -14.9698 7.68611
rfingers 7.12502
rthumb 11.1939 -21.9953
lclavicle -1.28216e-014 -4.77083e-015
lhumerus -33.9962 4.42325 87.6021
lradius 35.3048
lwrist -5.02373
lhand -20.2571 24.9359
lfingers 7.12502
lthumb 6.09164 54.8284
rfemur -13.9321 -1.26145 22.3924
rtibia 32.366
rfoot -12.5834 -7.28496
rtoes 5.3303
lfemur -13.3719 -5.59267 -21.4751
ltibia 40.547
lfoot -14.551 -1.2272
ltoes -15.7843
